# xmcd
#
# Track frame offsets:
#	150
#	16276
#	33676
#	42208
#
# Disc length: 775 seconds
#
# Revision: 0
# Processed by: cddbd v1.4PL0 Copyright (c) Steve Scherf et al.
# Submitted via: dBpowerAMP V4.0
#
DISCID=2a030504
DTITLE=Dune - Please turn around
DYEAR=2003
DGENRE=Pop
TTITLE0=หันมามอง (Please turn around)
TTITLE1=เข้าใจ (Understand,"Spring Version")
TTITLE2=Sunset
TTITLE3=Please Turn Around (Backing Track)
EXTD=
EXTT0=
EXTT1=
EXTT2=
EXTT3=
PLAYORDER=
